<svg xmlns="http://www.w3.org/2000/svg" width="32" height="32" viewBox="0 0 32 32" class="svg-icon"><path d="M10.646 20.854l12.07-12.065-1.334-1.334L9.316 19.516a3.486 3.486 0 0 0 0 4.938 3.483 3.483 0 0 0 4.936 0l.002.002L29.053 9.661a5.658 5.658 0 0 0-7.998-8.004L3.586 19.126a7.543 7.543 0 0 0 10.666 10.666L28.986 15.06l-1.334-1.334L12.918 28.46a5.652 5.652 0 0 1-7.996-.004 5.652 5.652 0 0 1-.002-7.994L22.387 2.991a3.775 3.775 0 0 1 5.334 0 3.77 3.77 0 0 1 0 5.332L12.924 23.128a1.61 1.61 0 1 1-2.277-2.273z"/></svg>