<svg xmlns="http://www.w3.org/2000/svg" width="32" height="32" viewBox="0 0 32 32" class="svg-icon"><path d="M0 10.28c0-4.709 5.137-8.541 11.454-8.541s11.458 3.832 11.458 8.541c0 4.709-5.14 8.541-11.458 8.541-1.44 0-2.85-.204-4.195-.601l-7.26 5.841 4.139-7.232C1.504 15.193-.001 12.824-.001 10.28zm32 8.418c0-3.45-2.771-6.41-6.73-7.756-.438 5.724-6.458 10.278-13.816 10.278-.62 0-1.236-.034-1.847-.099 1.41 3.526 5.757 6.117 10.938 6.117 1.44 0 2.85-.204 4.195-.601L32 31.998l-4.139-6.752C30.495 23.61 32 21.241 32 18.697z"/></svg>