<svg xmlns="http://www.w3.org/2000/svg" width="32" height="32" viewBox="0 0 32 32" class="svg-icon"><path d="M32 10v22H10v-2h20V10h2zm-6-4v20H6v2h22V6h-2zm-2-4v22H2V2h22zm-2 8.237V4h-5.42c.691 2 .299 2.214.156 2.38a1.036 1.036 0 0 1-.572.319c-.273.238-.826.98-.976 1.502-.141.485-.453.86-.885 1.059-.772.355-1.637.012-1.842-.082a3.367 3.367 0 0 1-.477.935c-.518.718-1.152.879-1.594.888-1.168.011-2.232-1.049-2.619-1.503.231.62.399 1.42.162 1.982a1.208 1.208 0 0 1-.238.364c1.025-.083 1.873.392 2.266 1.054.457.772.404 1.938-.746 2.801-.301.226-.443.418-.498.576 1.178.183 2.057.843 2.324 1.793.289 1.025-.207 2.091-1.268 2.715-.033.02-.336.217-.684 1.217h8.375c-.002-1-.004-1.126-.012-1.135-.109-.151-.424-.241-.861-.249-1.631-.03-2.383-1.038-2.545-1.97-.215-1.254.477-2.624 1.576-3.231-.543-.703-.203-1.229-.01-1.441.068-.075.182-.182.32-.31.793-.727.969-1.045.975-1.181-.037-.704.244-1.315.773-1.671.348-.236 1.088-.537 2.266-.078.025-.041.049-.084.072-.12.09-.158 1.053-.273 1.98-.377z"/></svg>