<svg xmlns="http://www.w3.org/2000/svg" width="32" height="32" viewBox="0 0 32 32" class="svg-icon"><path d="M15.999 2C7.028 2 0 6.464 0 12.165c0 3.583 2.804 6.799 7.418 8.622-.068.838-.324 2.179-1.089 4.143l-1.953 5.02 4.878-2.288c.185-.086 4.154-1.977 6.56-5.334H16c8.972 0 16.001-4.464 16.001-10.163 0-5.7-7.028-10.165-16-10.165zM16 20.172c-.455 0-.904-.015-1.348-.039-1.904 3.508-6.315 5.577-6.315 5.577 1.449-3.722 1.33-5.677 1.157-6.478C5.128 17.885 1.999 15.063 1.999 12c0-4.423 6.354-8 14-8s14 3.741 14 8.164-6.354 8.008-14 8.008zM8 8h16v2H8V8zm0 4h12v2H8v-2z"/></svg>