<svg xmlns="http://www.w3.org/2000/svg" width="32" height="32" viewBox="0 0 32 32" class="svg-icon"><path d="M6 4h10v2H6V4zm8 4h10v2H14V8zm-8 8h6V8H6v8zm2-6h2v4H8v-4zm2 12.639l-2.625 2.099.564-2.254A1.998 1.998 0 0 0 6 20H3.998C2.898 20 2 19.102 2 18V4c0-1.098.898-2 1.998-2h22C27.1 2 28 2.902 28 4v8.122c.094-.015.186-.046.281-.046.475 0 .948.184 1.305.541l.414.414V4c0-2.207-1.791-4-4-4H4C1.791 0 0 1.793 0 4v14c0 2.211 1.791 4 4 4h2l-2 8 6.675-5.34c-.404-.341-.675-.829-.675-1.39v-.631zm22 .699v-2.519l-3.209-.42a6.861 6.861 0 0 0-.779-1.879l2.082-2.674-1.783-1.783-2.68 2.076a6.828 6.828 0 0 0-1.875-.773l-.418-3.365h-2.519l-.424 3.365c-.67.166-1.297.43-1.879.773l-2.67-2.076-1.783 1.783 2.076 2.67a6.956 6.956 0 0 0-.773 1.883l-3.365.42v2.519l3.365.422c.166.666.43 1.299.773 1.875l-2.076 2.676 1.779 1.779 2.674-2.082a6.574 6.574 0 0 0 1.879.779l.42 3.213h2.523l.418-3.213a6.532 6.532 0 0 0 1.879-.779l2.672 2.082 1.787-1.779-2.082-2.676a6.79 6.79 0 0 0 .779-1.875L32 23.338zm-4.467.051a5.68 5.68 0 0 1-.643 1.547 1.275 1.275 0 0 0 .086 1.432l1.41 1.807-.211.213-1.809-1.406a1.256 1.256 0 0 0-1.431-.087 5.728 5.728 0 0 1-1.553.643 1.265 1.265 0 0 0-.949 1.074l-.285 2.275h-.301l-.281-2.275a1.268 1.268 0 0 0-.949-1.074 5.587 5.587 0 0 1-1.553-.643 1.262 1.262 0 0 0-1.435.087l-1.809 1.406-.207-.211 1.406-1.805c.322-.42.357-.988.088-1.435a5.675 5.675 0 0 1-.641-1.547 1.27 1.27 0 0 0-1.076-.953l-2.275-.283.002-.305 2.273-.281a1.266 1.266 0 0 0 1.076-.955 5.676 5.676 0 0 1 .641-1.543c.27-.451.234-1.02-.088-1.432l-1.41-1.813.211-.211 1.814 1.41a1.265 1.265 0 0 0 1.435.084 5.595 5.595 0 0 1 1.547-.643c.508-.129.885-.551.949-1.074l.281-2.271h.301l.285 2.271c.064.523.439.945.947 1.074a5.595 5.595 0 0 1 1.547.643 1.272 1.272 0 0 0 1.437-.084l1.811-1.41.211.211-1.41 1.813c-.318.412-.356.98-.086 1.428.293.49.506 1.01.643 1.547.127.512.553.891 1.072.955l2.279.281-.002.305-2.277.283a1.269 1.269 0 0 0-1.072.953zm-5.535-5.198c-2.1 0-3.807 1.711-3.807 3.809s1.707 3.809 3.807 3.809c2.099 0 3.807-1.711 3.807-3.809s-1.707-3.809-3.807-3.809zm0 6.348a2.538 2.538 0 1 1 .003-5.077 2.538 2.538 0 0 1-.003 5.077z"/></svg>