<svg xmlns="http://www.w3.org/2000/svg" width="32" height="32" viewBox="0 0 32 32" class="svg-icon"><path d="M16.047 22.746c-3.693 0-6.699-3.006-6.699-6.699s3.006-6.699 6.699-6.699 6.699 3.006 6.699 6.699-3.006 6.699-6.699 6.699zm0-17c1.094 0 2.127.219 3.117.535L16.047.047 12.93 6.281c.99-.316 2.024-.535 3.117-.535zm9.109 5.598l2.205-6.611-6.611 2.205a10.298 10.298 0 0 1 4.406 4.406zM11.344 6.937L4.735 4.732l2.203 6.611a10.292 10.292 0 0 1 4.406-4.406zm20.703 9.11l-6.234-3.117c.316.99.535 2.024.535 3.117s-.219 2.127-.535 3.117l6.234-3.117zm-26.301 0c0-1.094.219-2.127.535-3.117L.047 16.047l6.234 3.117c-.316-.99-.535-2.023-.535-3.117zm15.004 9.109l6.611 2.205-2.205-6.611a10.292 10.292 0 0 1-4.406 4.406zM6.938 20.75l-2.203 6.611 6.609-2.205a10.292 10.292 0 0 1-4.406-4.406zm9.109 5.598c-1.094 0-2.127-.219-3.117-.535l3.117 6.234 3.117-6.234c-.99.317-2.023.535-3.117.535z"/></svg>