<svg xmlns="http://www.w3.org/2000/svg" width="32" height="32" viewBox="0 0 32 32" class="svg-icon"><path d="M15.699 2.383l12.938 11.633-12.608 5.189a1.066 1.066 0 0 1-.359.072.903.903 0 0 1-.656-.273L2.032 5.572l12.264-3.504c.137-.049.281-.068.426-.068.355 0 .707.133.978.383zM31.107 23.74L17.63 29.287a1.415 1.415 0 0 1-1.555-.325L2.087 14.499a1.367 1.367 0 0 1-.309-.494C1.18 12.392-.066 9.482.001 7.591l13.273 13.723a3.373 3.373 0 0 0 2.404 1.025c.432 0 .859-.088 1.272-.256l13.586-5.604c.916 2.4 2.453 6.494.57 7.26z"/></svg>