<svg xmlns="http://www.w3.org/2000/svg" width="32" height="32" viewBox="0 0 32 32" class="svg-icon"><path d="M13.643 5.549c-.824.044-.711-.867-.756-1.155 0 0 .31-.222.488-.288.178-.067.756-.067.867.288.109.355.223 1.11-.6 1.155zm2.019 1.798c.488-.354 1.045.023 1.445 0 .398-.021.486-.533.666-.799.178-.268.953-.622.576-.999-.379-.377-2.199-.644-2.664-.045-.238.308-.979 1.156-1.356 1.332s-.178.866.066.91c.246.045.777-.044 1.266-.399zm2.223 2.2c-.133.156.068.49.51.49 0 .333.09.866.533.754s.49-.756-.066-1.111c-.26-.165-.531-.91-.977-.133zm13.412 6.5c0 8.423-6.828 15.25-15.25 15.25S.797 24.47.797 16.047c0-8.422 6.828-15.25 15.25-15.25s15.25 6.828 15.25 15.25zm-15.25 12.81c1.311 0 2.574-.199 3.766-.566a1.616 1.616 0 0 0-.131-.313c-.353-.644-.512-1.954-.156-2.287.354-.334.51-1.199.244-1.422-.266-.221.18-.601.223-.843.246-.912-.244-.955-.998-1.179-.756-.221-1.51.09-2.486.112-.98.021-1.379-1.378-1.49-1.62-.354-.223-.842-.558-.775-1.045.066-.49.51-.91.531-1-.088-.289 0-.82.135-.999.221-.844 1.309-1.399 1.666-1.556.133-.577 1.266-1.132 1.531-1.019.266.11.512.532.934 0 .42-.534.688-.378 1.332-.378.643 0 .842.312 1.043.91.199.6 1.6.687 1.621.556.287-.954 1.088-.223 1.244-.223.934-.065 1.043-.466.934-1.022-.111-.555-1.045-.267-1.156-.51-.086-.192-.289-.622-.4-.4-.109.222-.486.688-.732.065-.244-.621-.932-1.331-1.109-1.221-.268.379-.602.377-.756.267-.621-.467-1.086.023-1.355.289-.266.267-.668.706-1.246.863-.576.154-.955-.245-1.021-.822-.066-.578.447-1.062.959-.797.512.267.953.045.732-.177s-.377-.845-.088-.954c.287-.111.488 0 .977-.667s1.043-.444 1.688-.333c.644.111.467-.955.422-1.155s-.822-.644-.889-.489c-.065.155.111.866-.266 1.045-.379.179-.756-.424-1.067-.778-.312-.354.289-.687.356-.866.178-.644.912-1.177 1.6-.82s.82.089.777-.024c-.358-.422-.346-1.183 0-1.554.215-.231.418-.379.607-.469a12.742 12.742 0 0 0-7.197-2.221c-2.697 0-5.197.842-7.264 2.271.664-.297 2.156-.422 2.195-.115.043.356.043 1.288.353 1.11.266-.134.578-.889 1.289-.355.709.532-.135 1.198-.355 1.554-.223.357-.312.933-1.066.666-.756-.267-.889.089-.934.355s-.531.488-1.154.312c-.623-.178-1.641.797-2.131 1.287-.268.267-2.371.923-2.064-.467.018-.08.037-.141.055-.215a12.738 12.738 0 0 0-1.596 4.625c.594.18 1.832.518 2.051 1.475.266.399.797 1.644 1.332 2.31.857 1.073.27 1.593.355 2.443.443.222 1.109.71 1.775 1.067.666.354 1.156 1.287.135 1.643-.223.178.043 1.022-.4 1.199-.367.146-.869.754-1.334.968 2.293 2.155 5.369 3.487 8.758 3.487zm12.81-12.81c0-.194-.021-.383-.029-.575a4.99 4.99 0 0 1-.975-.151c-.42-.112-.733.332-.533.488.199.154.668.331.711.621.045.289-.443 1.599-.711 2.086-.266.49-.576.533-.733.313-.154-.223-.443-1.31-.777-1.933-.334-.621-.377-.134-.266.267.111.399.621 1.932.777 2.376.645.134.732.2.934.4.197.199-.045.467-.4.976-.355.512-1.621 2.844-1.687 3.265-.031.203.006.516-.014.863a12.765 12.765 0 0 0 3.703-8.996z"/></svg>