<svg xmlns="http://www.w3.org/2000/svg" width="32" height="32" viewBox="0 0 32 32" class="svg-icon"><path d="M28.633 17.945l-4.118-4.426c.076 1.131-.034 2.262-.355 3.241l2.83 2.827a5.281 5.281 0 0 1 0 7.459 5.223 5.223 0 0 1-3.723 1.54 5.227 5.227 0 0 1-3.728-1.542l-5.459-5.459a5.276 5.276 0 0 1 0-7.452c.607-.609 1.361-1.048 2.1-1.229a1.833 1.833 0 0 0-.279-.414l-1.344-1.461c-.845.404-1.54.881-2.12 1.461a7.554 7.554 0 0 0-2.223 5.371c0 2.027.791 3.934 2.223 5.366l5.459 5.459a7.544 7.544 0 0 0 5.371 2.225 7.55 7.55 0 0 0 5.366-2.223c2.962-2.962 2.962-7.782 0-10.745zM8.711 3.497a5.23 5.23 0 0 1 3.726 1.54l5.459 5.457a5.279 5.279 0 0 1 0 7.454c-.605.605-1.356 1.043-2.105 1.222.086.154.166.301.287.421l1.422 1.422c.808-.394 1.476-.862 2.039-1.422 2.96-2.962 2.96-7.777 0-10.74L14.08 3.394c-1.434-1.435-3.342-2.225-5.369-2.225s-3.934.791-5.369 2.225C1.908 4.828 1.117 6.736 1.117 8.763s.791 3.934 2.225 5.369L7.46 18.56c-.076-1.131.034-2.262.355-3.239l-2.83-2.833c-.994-.991-1.542-2.316-1.542-3.726s.548-2.732 1.542-3.726a5.23 5.23 0 0 1 3.726-1.54z"/></svg>