<svg xmlns="http://www.w3.org/2000/svg" width="32" height="32" viewBox="0 0 32 32" class="svg-icon"><path d="M14 9.2A1.2 1.2 0 0 1 15.2 8h1.6A1.2 1.2 0 0 1 18 9.2v7.6a1.2 1.2 0 0 1-1.2 1.2h-1.6a1.2 1.2 0 0 1-1.2-1.2V9.2zm4 11.999A1.2 1.2 0 0 0 16.801 20h-1.602A1.2 1.2 0 0 0 14 21.199v1.602A1.2 1.2 0 0 0 15.199 24h1.602A1.2 1.2 0 0 0 18 22.801v-1.602zM31.6 16c0 8.615-6.982 15.6-15.6 15.6C7.385 31.6.4 24.616.4 16S7.384.4 16 .4C24.617.4 31.6 7.384 31.6 16zm-2.401 0c0-7.279-5.92-13.201-13.199-13.201S2.801 8.721 2.801 16 8.721 29.199 16 29.199 29.199 23.279 29.199 16z"/></svg>