<svg xmlns="http://www.w3.org/2000/svg" width="32" height="32" viewBox="0 0 32 32" class="svg-icon"><path d="M28.764 30a2 2 0 0 0 1.789-2.894L17.791 1.579a2 2 0 0 0-3.578 0L1.447 27.106a1.997 1.997 0 0 0 .088 1.945c.363.59 1.008.949 1.701.949h25.527zM3.236 28L16.002 2.473 28.764 28H3.237zM14 11.2a1.2 1.2 0 0 1 1.2-1.2h1.6a1.2 1.2 0 0 1 1.2 1.2v7.6a1.2 1.2 0 0 1-1.2 1.2h-1.6a1.2 1.2 0 0 1-1.2-1.2v-7.6zm4 13.601A1.2 1.2 0 0 1 16.801 26h-1.602A1.2 1.2 0 0 1 14 24.801v-1.602A1.2 1.2 0 0 1 15.199 22h1.602A1.2 1.2 0 0 1 18 23.199v1.602z"/></svg>