<svg xmlns="http://www.w3.org/2000/svg" width="32" height="32" viewBox="0 0 32 32" class="svg-icon"><path d="M10.521.216a17.147 17.147 0 0 0-5.346 6.686c1.613 4.332 3.585 8.592 5.973 12.729s5.092 7.974 8.037 11.537c2.82.286 5.727-.121 8.463-1.287a1.06 1.06 0 0 0 .375-1.69 76.517 76.517 0 0 1-4.307-5.23 1.05 1.05 0 0 0-1.474-.212l-1.596 1.208a1.002 1.002 0 0 1-1.473-.298l-7.502-12.994a1.003 1.003 0 0 1 .478-1.425l1.844-.778c.538-.227.782-.845.553-1.382A76.52 76.52 0 0 1 12.171.735a1.06 1.06 0 0 0-1.651-.52z"/></svg>