<svg xmlns="http://www.w3.org/2000/svg" width="32" height="32" viewBox="0 0 32 32" class="svg-icon"><path d="M15.709 30.889a14.898 14.898 0 0 1-14.12-10.133A14.952 14.952 0 0 1 4.367 6.318l9.66 10.857 5.733 13.148a14.855 14.855 0 0 1-4.052.564zM7.405 3.611a14.813 14.813 0 0 1 3.531-1.746 14.836 14.836 0 0 1 4.77-.789c3.551 0 6.974 1.264 9.677 3.568l-9.522 8.486-8.455-9.52zm12.66 17.301l7.334 4.295a14.752 14.752 0 0 1-3.922 3.482l-3.412-7.777zm-.93-5.258l8.949-7.971a14.828 14.828 0 0 1 1.372 14.021l-10.321-6.051z"/></svg>