<svg xmlns="http://www.w3.org/2000/svg" width="32" height="32" viewBox="0 0 32 32" class="svg-icon"><path d="M16 0C7.162 0 0 7.162 0 16s7.162 16 16 16c8.838 0 16-7.162 16-16S24.838 0 16 0zm2 28h-4v-4h4v4zm1.164-12.391C17.787 16.918 18 16.851 18 18.55v1.449h-4.211V18.55c0-1.766.99-2.508 2.086-3.477.303-.27.625-.559.957-.887l.586-.555c1.148-1.148 2.23-2.227 2.23-3.91 0-1.973-1.238-3.246-3.156-3.246-1.664 0-2.477.773-2.898 2.758l-.156.766H10l.078-1.055c.426-3.137 2.775-4.945 6.445-4.945 3.625 0 5.969 2.211 5.969 5.633 0 2.66-1.441 4.219-3.328 5.977z"/></svg>