<svg xmlns="http://www.w3.org/2000/svg" width="32" height="32" viewBox="0 0 32 32" class="svg-icon"><path d="M28 22h-7.281a3.8 3.8 0 0 0-1.037-.545c.201-.476.356-.964.49-1.455H28v2zm0-6h-7.475c.057.666.068 1.333.008 2H28v-2zm0-4h-8.549c.307.646.543 1.315.725 2H28v-2zm4-4.801V26h-7.18l-1.998-2H30V10h-8V2h-8v4.581a12.152 12.152 0 0 0-2-.749V0h12.801L32 7.199zm-2 .182L24.621 2H24v6h6v-.619zm-6.359 22.833l-1.43 1.43a1.012 1.012 0 0 1-1.434 0l-4.41-4.407a1.012 1.012 0 0 1-.02-1.403l-1.928-1.93.023-.024-.002-.003c-3.459 2.74-8.477 2.55-11.672-.644a8.812 8.812 0 0 1 12.461-12.461c3.209 3.209 3.383 8.252.609 11.712l.01-.011 1.926 1.925.025-.027a1.016 1.016 0 0 1 1.434 0l4.406 4.41a1.011 1.011 0 0 1 0 1.434zM13.414 12.59a6.242 6.242 0 0 0-8.826-.003 6.243 6.243 0 0 0 0 8.827c2.436 2.438 6.389 2.438 8.826 0s2.436-6.39 0-8.824z"/></svg>