<svg xmlns="http://www.w3.org/2000/svg" width="32" height="32" viewBox="0 0 32 32" class="svg-icon"><path d="M19.086 10.254l2.961-2.674-.771-1.859-3.984.203-1.121-1.121.203-3.984-1.859-.772-2.674 2.961h-1.586L7.581.047 5.722.819l.203 3.984-1.121 1.121-3.986-.203-.77 1.859 2.961 2.674v1.586L.048 14.514l.77 1.859 3.986-.203 1.121 1.121-.203 3.984 1.859.771 2.674-2.961h1.586l2.674 2.961 1.859-.771-.203-3.984 1.121-1.121 3.984.203.771-1.859-2.961-2.674v-1.586zm-8.039 4.594c-2.098 0-3.801-1.703-3.801-3.801s1.703-3.801 3.801-3.801 3.801 1.703 3.801 3.801-1.703 3.801-3.801 3.801zm16.301 8.277l-.484-.842.313-2.883-1.303-.754-2.34 1.713h-.973l-2.34-1.713-1.303.754.312 2.883-.486.842-2.652 1.17v1.504l2.652 1.17.486.842-.312 2.883 1.303.754 2.34-1.713h.973l2.34 1.713 1.303-.754-.313-2.883.484-.842 2.654-1.17v-1.504l-2.654-1.17zm-4.301 4.922a3.001 3.001 0 0 1 0-6 3.001 3.001 0 0 1 0 6z"/></svg>