<svg xmlns="http://www.w3.org/2000/svg" width="32" height="32" viewBox="0 0 32 32" class="svg-icon"><path d="M22.791 10l-1.984 2.121 1.416 1.414L23.637 12h1.275l.707.967-7.865 7.865a4.911 4.911 0 0 0-1.754-.73V5.196h1l1 .805v2h2V5.196L15 .001l-5 5.195v2.805h2v-2l1-.805h1v14.906a4.947 4.947 0 0 0-1.754.73l-7.865-7.865.707-.967h1.275l1.414 1.535 1.414-1.414L7.209 10H0v7.209l2.121 1.984 1.414-1.416L2 16.363v-1.275l.967-.707 7.865 7.865A4.967 4.967 0 0 0 10 25c0 2.762 2.238 5 5 5s5-2.238 5-5c0-1.02-.309-1.965-.832-2.754l7.865-7.865.967.707v1.275l-1.535 1.414 1.414 1.416L30 17.209V10h-7.209zM15 28a3.001 3.001 0 0 1 0-6 3.001 3.001 0 0 1 0 6z"/></svg>