<svg xmlns="http://www.w3.org/2000/svg" width="32" height="32" viewBox="0 0 32 32" class="svg-icon"><path d="M7.101 12C7.064 11.667 7 11.342 7 11c0-4.963 4.039-9 9.006-9C20.965 2 25 6.037 25 11s-4.035 9-8.994 9a1 1 0 0 0 0 2c5.022 0 9.258-3.39 10.568-8h1.716a1.65 1.65 0 0 0 1.65-1.65v-2.7A1.65 1.65 0 0 0 28.29 8h-1.716c-1.31-4.609-5.546-8-10.568-8C9.938 0 5 4.936 5 11c0 .338.021.67.051 1h2.051zM23 11c0-3.868-3.136-7-6.994-7A7 7 0 1 0 23 11zm8.666 19.848C31.258 25.401 21.447 24 16 24 10.569 24 .741 25.407.332 30.848L.249 32h31.5l-.083-1.152z"/></svg>