<svg xmlns="http://www.w3.org/2000/svg" width="32" height="32" viewBox="0 0 32 32" class="svg-icon"><path d="M8 20h6v10h4V20h6l-8-8zM27.08 8.793C26.428 4.045 22.596.397 17.951.397c-3.48 0-6.504 2.045-8.082 5.062a5.15 5.15 0 0 0-1.344-.199c-2.563 0-4.471 1.909-4.646 4.326-2.172 1.115-3.68 3.368-3.68 5.972 0 3.537 2.891 6.443 5.801 6.443v-2.4c-1.541 0-3.4-1.803-3.4-4.043 0-1.614.91-3.084 2.375-3.837l1.199-.616.1-1.345c.09-1.236 1.016-2.1 2.252-2.1.193 0 .428.037.717.115l1.861.503.893-1.707c1.217-2.328 3.5-3.774 5.955-3.774 3.354 0 6.256 2.718 6.752 6.323l.203 1.484 1.424.468c1.836.606 3.07 2.33 3.07 4.292 0 2.347-1.859 4.235-3.4 4.235v2.4c2.838 0 5.801-2.936 5.801-6.636 0-3.07-1.982-5.67-4.721-6.571z"/></svg>