<?xml version="1.0" encoding="utf-8"?>
<!-- Generator: Adobe Illustrator 16.0.4, SVG Export Plug-In . SVG Version: 6.00 Build 0)  -->
<!DOCTYPE svg PUBLIC "-//W3C//DTD SVG 1.1//EN" "http://www.w3.org/Graphics/SVG/1.1/DTD/svg11.dtd">
<svg version="1.1" id="Layer_1" xmlns="http://www.w3.org/2000/svg" xmlns:xlink="http://www.w3.org/1999/xlink" x="0px" y="0px"
	 width="30px" height="30px" viewBox="0 0 30 30" enable-background="new 0 0 30 30" xml:space="preserve">
<g id="Flikr">
</g>
<g id="Minimal_Idle">
</g>
<g id="Minimal_Hover_COlor" display="none">
</g>
<g id="Blue_Gradient" display="none">
	
		<linearGradient id="SVGID_1_" gradientUnits="userSpaceOnUse" x1="-757" y1="396" x2="1203" y2="396" gradientTransform="matrix(1 0 0 1 488 -581)">
		<stop  offset="0" style="stop-color:#00AEEF"/>
		<stop  offset="1" style="stop-color:#2E3092"/>
	</linearGradient>
	<rect x="-269" y="-445" display="inline" fill="url(#SVGID_1_)" width="1960" height="520"/>
</g>
<path fill="#FFFFFF" d="M21.13,7H8.843C7.825,7,7,7.825,7,8.843v12.286C7,22.146,7.825,23,8.843,23H21.13
	c1.019,0,1.87-0.854,1.87-1.871V8.843C23,7.825,22.148,7,21.13,7z M18.059,9.457c0-0.339,0.275-0.614,0.614-0.614h1.843
	c0.34,0,0.614,0.275,0.614,0.614V11.3c0,0.339-0.274,0.614-0.614,0.614h-1.843c-0.339,0-0.614-0.275-0.614-0.614V9.457z
	 M14.986,11.915c1.698,0,3.073,1.375,3.073,3.071s-1.375,3.073-3.073,3.073c-1.696,0-3.072-1.377-3.072-3.073
	C11.915,13.29,13.29,11.915,14.986,11.915z M21.4,20.516c0,0.338-0.545,0.885-0.885,0.885H9.458c-0.34,0-0.857-0.547-0.857-0.885
	V13.4h1.633c-0.101,0-0.162,0.938-0.162,1.363c0,2.715,2.2,5.049,4.915,5.049c2.715,0,4.914-2.289,4.914-5.004
	c0-0.425-0.059-1.408-0.159-1.408H21.4V20.516L21.4,20.516z"/>
<g id="Square_Hover_Color" display="none">
	<rect display="inline" fill="#126EB3" width="30" height="30"/>
	<path display="inline" fill="#FFFFFF" d="M21.131,7H8.843C7.825,7,7,7.825,7,8.843v12.286C7,22.146,7.825,23,8.843,23h12.288
		C22.148,23,23,22.146,23,21.129V8.843C23,7.825,22.148,7,21.131,7z M18.059,9.457c0-0.339,0.275-0.614,0.614-0.614h1.843
		c0.34,0,0.615,0.275,0.615,0.614V11.3c0,0.339-0.275,0.614-0.615,0.614h-1.843c-0.339,0-0.614-0.275-0.614-0.614V9.457z
		 M14.986,11.915c1.698,0,3.073,1.375,3.073,3.071s-1.375,3.073-3.073,3.073c-1.696,0-3.072-1.377-3.072-3.073
		C11.915,13.29,13.29,11.915,14.986,11.915z M21.4,20.516c0,0.338-0.545,0.885-0.885,0.885H9.458c-0.34,0-0.857-0.547-0.857-0.885
		V13.4h1.633c-0.102,0-0.162,0.938-0.162,1.363c0,2.715,2.2,5.049,4.915,5.049c2.715,0,4.914-2.289,4.914-5.004
		c0-0.425-0.06-1.408-0.159-1.408H21.4V20.516L21.4,20.516z"/>
</g>
<g id="Circle_Idle" display="none">
	<path display="inline" opacity="0.3" enable-background="new    " d="M15,30L15,30C6.716,30,0,23.284,0,15l0,0
		C0,6.716,6.716,0,15,0l0,0c8.284,0,15,6.716,15,15l0,0C30,23.284,23.284,30,15,30z"/>
	<path display="inline" fill="#FFFFFF" d="M21.13,7H8.843C7.825,7,7,7.825,7,8.843v12.286C7,22.146,7.825,23,8.843,23H21.13
		c1.019,0,1.87-0.854,1.87-1.871V8.843C23,7.825,22.148,7,21.13,7z M18.059,9.457c0-0.339,0.275-0.614,0.614-0.614h1.843
		c0.34,0,0.614,0.275,0.614,0.614V11.3c0,0.339-0.274,0.614-0.614,0.614h-1.843c-0.339,0-0.614-0.275-0.614-0.614V9.457z
		 M14.986,11.915c1.698,0,3.073,1.375,3.073,3.071s-1.375,3.073-3.073,3.073c-1.696,0-3.072-1.377-3.072-3.073
		C11.915,13.29,13.29,11.915,14.986,11.915z M21.4,20.516c0,0.338-0.545,0.885-0.885,0.885H9.458c-0.34,0-0.857-0.547-0.857-0.885
		V13.4h1.633c-0.101,0-0.162,0.938-0.162,1.363c0,2.715,2.2,5.049,4.915,5.049c2.715,0,4.914-2.289,4.914-5.004
		c0-0.425-0.059-1.408-0.159-1.408H21.4V20.516L21.4,20.516z"/>
</g>
<g id="Circle_Hover_Color" display="none">
	<path display="inline" fill="#126EB3" d="M15,30L15,30C6.716,30,0,23.284,0,15l0,0C0,6.716,6.716,0,15,0l0,0
		c8.284,0,15,6.716,15,15l0,0C30,23.284,23.284,30,15,30z"/>
	<path display="inline" fill="#FFFFFF" d="M21.131,7H8.843C7.825,7,7,7.825,7,8.843v12.286C7,22.146,7.825,23,8.843,23h12.288
		C22.148,23,23,22.146,23,21.129V8.843C23,7.825,22.148,7,21.131,7z M18.059,9.457c0-0.339,0.275-0.614,0.614-0.614h1.843
		c0.34,0,0.615,0.275,0.615,0.614V11.3c0,0.339-0.275,0.614-0.615,0.614h-1.843c-0.339,0-0.614-0.275-0.614-0.614V9.457z
		 M14.986,11.915c1.698,0,3.073,1.375,3.073,3.071s-1.375,3.073-3.073,3.073c-1.696,0-3.072-1.377-3.072-3.073
		C11.915,13.29,13.29,11.915,14.986,11.915z M21.4,20.516c0,0.338-0.545,0.885-0.885,0.885H9.458c-0.34,0-0.857-0.547-0.857-0.885
		V13.4h1.633c-0.102,0-0.162,0.938-0.162,1.363c0,2.715,2.2,5.049,4.915,5.049c2.715,0,4.914-2.289,4.914-5.004
		c0-0.425-0.06-1.408-0.159-1.408H21.4V20.516L21.4,20.516z"/>
</g>
<g id="Layer_10">
</g>
<g id="Text">
</g>
</svg>
