<?xml version="1.0" encoding="utf-8"?>
<!-- Generator: Adobe Illustrator 16.0.4, SVG Export Plug-In . SVG Version: 6.00 Build 0)  -->
<!DOCTYPE svg PUBLIC "-//W3C//DTD SVG 1.1//EN" "http://www.w3.org/Graphics/SVG/1.1/DTD/svg11.dtd">
<svg version="1.1" id="Layer_1" xmlns="http://www.w3.org/2000/svg" xmlns:xlink="http://www.w3.org/1999/xlink" x="0px" y="0px"
	 width="30px" height="30px" viewBox="0 0 30 30" enable-background="new 0 0 30 30" xml:space="preserve">
<g id="Flikr">
</g>
<g id="Minimal_Idle">
</g>
<g id="Minimal_Hover_COlor" display="none">
</g>
<g id="Blue_Gradient" display="none">
	
		<linearGradient id="SVGID_1_" gradientUnits="userSpaceOnUse" x1="-1233" y1="310" x2="727" y2="310" gradientTransform="matrix(1 0 0 -1 244 125)">
		<stop  offset="0" style="stop-color:#00AEEF"/>
		<stop  offset="1" style="stop-color:#2E3092"/>
	</linearGradient>
	<rect x="-989" y="-445" display="inline" fill="url(#SVGID_1_)" width="1960" height="520"/>
</g>
<path fill="#FFFFFF" d="M15,7.146c-4.338,0-7.854,3.517-7.854,7.854c0,3.248,1.972,6.035,4.783,7.23
	c-0.068-0.666-0.112-1.554,0.042-2.215c0.13-0.562,0.795-3.372,0.905-3.839c-0.069-0.163-0.226-0.601-0.226-1.186
	c0-1.182,0.713-2.108,1.622-2.108c0.714,0,1.193,0.525,1.193,1.307c0,0.46-0.179,1.04-0.368,1.652
	c-0.103,0.334-0.209,0.676-0.288,1.01c-0.07,0.297-0.012,0.583,0.163,0.805c0.186,0.234,0.479,0.368,0.806,0.368
	c1.315,0,2.27-1.429,2.27-3.397c0-1.764-1.267-2.996-3.081-2.996c-2.174,0-3.347,1.653-3.347,3.208c0,0.595,0.222,1.28,0.539,1.666
	c0.099,0.119,0.13,0.25,0.095,0.398l-0.219,0.892c-0.062,0.265-0.251,0.294-0.329,0.294c-0.063,0-0.133-0.018-0.211-0.054
	c-1.071-0.499-1.711-2.032-1.711-3.225c0-2.385,1.687-4.953,5.39-4.953c2.874,0,5.042,2.036,5.042,4.736
	c0,2.899-1.838,5.085-4.275,5.085c-0.658,0-1.312-0.261-1.711-0.655l-0.386,1.472c-0.184,0.71-0.672,1.574-0.967,2.061
	c0.677,0.189,1.387,0.298,2.124,0.298c4.338,0,7.854-3.517,7.854-7.854S19.338,7.146,15,7.146z"/>
<rect x="7" y="7" fill="none" width="16" height="16"/>
<g id="Square_Hover_Color" display="none">
	<rect display="inline" fill="#BD081C" width="30" height="30"/>
	<circle display="inline" fill="#FFFFFF" cx="15" cy="15" r="7.854"/>
	<path display="inline" fill="#BD081C" d="M15.174,10.058c-3.39,0-5.19,2.275-5.19,4.753c0,1.152,0.613,2.586,1.595,3.042
		c0.148,0.07,0.228,0.039,0.263-0.104c0.026-0.109,0.158-0.643,0.218-0.892c0.019-0.078,0.01-0.146-0.054-0.225
		c-0.325-0.394-0.584-1.117-0.584-1.792c0-1.732,1.312-3.409,3.546-3.409c1.93,0,3.281,1.315,3.281,3.196
		c0,2.125-1.073,3.597-2.47,3.597c-0.771,0-1.348-0.639-1.163-1.42c0.222-0.934,0.65-1.941,0.65-2.615
		c0-0.603-0.323-1.106-0.994-1.106c-0.788,0-1.421,0.815-1.421,1.908c0,0.695,0.235,1.166,0.235,1.166s-0.778,3.292-0.921,3.904
		c-0.158,0.677-0.097,1.627-0.028,2.248c0.177,0.069,0.354,0.139,0.537,0.195c0.32-0.521,0.799-1.377,0.977-2.059
		c0.095-0.367,0.489-1.867,0.489-1.867c0.256,0.488,1.004,0.902,1.8,0.902c2.368,0,4.075-2.18,4.075-4.886
		C20.016,12,17.898,10.058,15.174,10.058z"/>
</g>
<g id="Circle_Idle" display="none">
	<path display="inline" opacity="0.3" enable-background="new    " d="M15,30L15,30C6.716,30,0,23.284,0,15l0,0
		C0,6.716,6.716,0,15,0l0,0c8.284,0,15,6.716,15,15l0,0C30,23.284,23.284,30,15,30z"/>
	<path display="inline" fill="#FFFFFF" d="M15,7.146c-4.338,0-7.854,3.517-7.854,7.854c0,3.248,1.972,6.035,4.783,7.23
		c-0.068-0.666-0.112-1.554,0.042-2.215c0.13-0.562,0.795-3.372,0.905-3.839c-0.069-0.163-0.226-0.601-0.226-1.186
		c0-1.182,0.713-2.108,1.622-2.108c0.714,0,1.193,0.525,1.193,1.307c0,0.46-0.179,1.04-0.368,1.652
		c-0.103,0.334-0.209,0.676-0.288,1.01c-0.07,0.297-0.012,0.583,0.163,0.805c0.186,0.234,0.479,0.368,0.806,0.368
		c1.315,0,2.27-1.429,2.27-3.397c0-1.764-1.267-2.996-3.081-2.996c-2.174,0-3.347,1.653-3.347,3.208c0,0.595,0.222,1.28,0.539,1.666
		c0.099,0.119,0.13,0.25,0.095,0.398l-0.219,0.892c-0.062,0.265-0.251,0.294-0.329,0.294c-0.063,0-0.133-0.018-0.211-0.054
		c-1.071-0.499-1.711-2.032-1.711-3.225c0-2.385,1.687-4.953,5.39-4.953c2.874,0,5.042,2.036,5.042,4.736
		c0,2.899-1.838,5.085-4.275,5.085c-0.658,0-1.312-0.261-1.711-0.655l-0.386,1.472c-0.184,0.71-0.672,1.574-0.967,2.061
		c0.677,0.189,1.387,0.298,2.124,0.298c4.338,0,7.854-3.517,7.854-7.854S19.338,7.146,15,7.146z"/>
	<rect x="7" y="7" display="inline" fill="none" width="16" height="16"/>
</g>
<g id="Circle_Hover_Color" display="none">
	<path display="inline" fill="#BD081C" d="M15,30L15,30C6.716,30,0,23.284,0,15l0,0C0,6.716,6.716,0,15,0l0,0
		c8.284,0,15,6.716,15,15l0,0C30,23.284,23.284,30,15,30z"/>
	<circle display="inline" fill="#FFFFFF" cx="15" cy="15" r="7.854"/>
	<path display="inline" fill="#BD081C" d="M15.174,10.058c-3.39,0-5.19,2.275-5.19,4.753c0,1.152,0.613,2.586,1.595,3.042
		c0.148,0.07,0.228,0.039,0.263-0.104c0.026-0.109,0.158-0.643,0.218-0.892c0.019-0.078,0.01-0.146-0.054-0.225
		c-0.325-0.394-0.584-1.117-0.584-1.792c0-1.732,1.312-3.409,3.546-3.409c1.93,0,3.281,1.315,3.281,3.196
		c0,2.125-1.073,3.597-2.47,3.597c-0.771,0-1.348-0.639-1.163-1.42c0.222-0.934,0.65-1.941,0.65-2.615
		c0-0.603-0.323-1.106-0.994-1.106c-0.788,0-1.421,0.815-1.421,1.908c0,0.695,0.235,1.166,0.235,1.166s-0.778,3.292-0.921,3.904
		c-0.158,0.677-0.097,1.627-0.028,2.248c0.177,0.069,0.354,0.139,0.537,0.195c0.32-0.521,0.799-1.377,0.977-2.059
		c0.095-0.367,0.489-1.867,0.489-1.867c0.256,0.488,1.004,0.902,1.8,0.902c2.368,0,4.075-2.18,4.075-4.886
		C20.016,12,17.898,10.058,15.174,10.058z"/>
</g>
<g id="Layer_10">
</g>
<g id="Text">
</g>
</svg>
