<?xml version="1.0" encoding="utf-8"?>
<!-- Generator: Adobe Illustrator 16.0.4, SVG Export Plug-In . SVG Version: 6.00 Build 0)  -->
<!DOCTYPE svg PUBLIC "-//W3C//DTD SVG 1.1//EN" "http://www.w3.org/Graphics/SVG/1.1/DTD/svg11.dtd">
<svg version="1.1" id="Layer_1" xmlns="http://www.w3.org/2000/svg" xmlns:xlink="http://www.w3.org/1999/xlink" x="0px" y="0px"
	 width="30px" height="30px" viewBox="0 0 30 30" enable-background="new 0 0 30 30" xml:space="preserve">
<g id="Flikr">
</g>
<g id="Minimal_Idle">
</g>
<g id="Minimal_Hover_COlor" display="none">
</g>
<g id="Blue_Gradient" display="none">
	
		<linearGradient id="SVGID_1_" gradientUnits="userSpaceOnUse" x1="-1953" y1="310" x2="7" y2="310" gradientTransform="matrix(1 0 0 -1 244 125)">
		<stop  offset="0" style="stop-color:#00AEEF"/>
		<stop  offset="1" style="stop-color:#2E3092"/>
	</linearGradient>
	<rect x="-1709" y="-445" display="inline" fill="url(#SVGID_1_)" width="1960" height="520"/>
</g>
<path fill="#FFFFFF" d="M19.8,7h-9.6C8.44,7,7,8.44,7,10.2v9.6c0,1.761,1.44,3.2,3.2,3.2h9.6c1.761,0,3.2-1.439,3.2-3.2v-9.6
	C23,8.44,21.561,7,19.8,7z M20.15,11.593c0,1.134-0.923,2.058-2.058,2.058h-0.186c-0.357,0-0.708-0.095-1.021-0.276L13.634,15
	l3.252,1.626c0.313-0.181,0.664-0.276,1.021-0.276h0.186c1.135,0,2.058,0.923,2.058,2.058v0.186c0,1.135-0.923,2.058-2.058,2.058
	h-0.186c-1.135,0-2.058-0.923-2.058-2.058v-0.186c0-0.118,0.013-0.237,0.038-0.366l-3.234-1.617
	c-0.391,0.457-0.963,0.727-1.561,0.727h-0.186c-1.135,0-2.058-0.924-2.058-2.058v-0.186c0-1.134,0.923-2.058,2.058-2.058h0.186
	c0.598,0,1.17,0.269,1.561,0.727l3.234-1.617c-0.025-0.129-0.038-0.249-0.038-0.367v-0.186c0-1.134,0.923-2.058,2.058-2.058h0.186
	c1.135,0,2.058,0.923,2.058,2.058V11.593z"/>
<g id="Square_Hover_Color" display="none">
	<rect display="inline" fill="#03BF01" width="30" height="30"/>
	<path display="inline" fill="#FFFFFF" d="M19.8,23h-9.6C8.44,23,7,21.561,7,19.8v-9.6C7,8.44,8.44,7,10.2,7h9.6
		c1.761,0,3.2,1.44,3.2,3.2v9.6C23,21.561,21.561,23,19.8,23z"/>
	<path display="inline" fill="#03BF01" d="M11.093,16.95h-0.186c-1.021,0-1.857-0.836-1.857-1.857v-0.186
		c0-1.021,0.836-1.857,1.857-1.857h0.186c1.021,0,1.857,0.836,1.857,1.857v0.186C12.95,16.114,12.114,16.95,11.093,16.95z"/>
	<path display="inline" fill="#03BF01" d="M18.093,13.45h-0.186c-1.021,0-1.857-0.836-1.857-1.857v-0.186
		c0-1.021,0.836-1.857,1.857-1.857h0.186c1.021,0,1.857,0.836,1.857,1.857v0.186C19.95,12.614,19.114,13.45,18.093,13.45z"/>
	<path display="inline" fill="#03BF01" d="M18.093,20.45h-0.186c-1.021,0-1.857-0.836-1.857-1.857v-0.186
		c0-1.021,0.836-1.857,1.857-1.857h0.186c1.021,0,1.857,0.836,1.857,1.857v0.186C19.95,19.614,19.114,20.45,18.093,20.45z"/>
	<polygon display="inline" fill="#03BF01" points="17.347,18.547 10.254,15 17.347,11.454 17.934,12.626 13.187,15 17.934,17.373 	
		"/>
</g>
<g id="Circle_Idle" display="none">
	<path display="inline" opacity="0.3" enable-background="new    " d="M15,30L15,30C6.716,30,0,23.284,0,15l0,0
		C0,6.716,6.716,0,15,0l0,0c8.284,0,15,6.716,15,15l0,0C30,23.284,23.284,30,15,30z"/>
	<path display="inline" fill="#FFFFFF" d="M19.8,7h-9.6C8.44,7,7,8.44,7,10.2v9.6c0,1.761,1.44,3.2,3.2,3.2h9.6
		c1.761,0,3.2-1.439,3.2-3.2v-9.6C23,8.44,21.561,7,19.8,7z M20.15,11.593c0,1.134-0.923,2.058-2.058,2.058h-0.186
		c-0.357,0-0.708-0.095-1.021-0.276L13.634,15l3.252,1.626c0.313-0.181,0.664-0.276,1.021-0.276h0.186
		c1.135,0,2.058,0.923,2.058,2.058v0.186c0,1.135-0.923,2.058-2.058,2.058h-0.186c-1.135,0-2.058-0.923-2.058-2.058v-0.186
		c0-0.118,0.013-0.237,0.038-0.366l-3.234-1.617c-0.391,0.457-0.963,0.727-1.561,0.727h-0.186c-1.135,0-2.058-0.924-2.058-2.058
		v-0.186c0-1.134,0.923-2.058,2.058-2.058h0.186c0.598,0,1.17,0.269,1.561,0.727l3.234-1.617c-0.025-0.129-0.038-0.249-0.038-0.367
		v-0.186c0-1.134,0.923-2.058,2.058-2.058h0.186c1.135,0,2.058,0.923,2.058,2.058V11.593z"/>
</g>
<g id="Circle_Hover_Color" display="none">
	<path display="inline" fill="#03BF01" d="M15,30L15,30C6.716,30,0,23.284,0,15l0,0C0,6.716,6.716,0,15,0l0,0
		c8.284,0,15,6.716,15,15l0,0C30,23.284,23.284,30,15,30z"/>
	<path display="inline" fill="#FFFFFF" d="M19.8,23h-9.6C8.44,23,7,21.561,7,19.8v-9.6C7,8.44,8.44,7,10.2,7h9.6
		c1.761,0,3.2,1.44,3.2,3.2v9.6C23,21.561,21.561,23,19.8,23z"/>
	<path display="inline" fill="#03BF01" d="M11.093,16.95h-0.186c-1.021,0-1.857-0.836-1.857-1.857v-0.186
		c0-1.021,0.836-1.857,1.857-1.857h0.186c1.021,0,1.857,0.836,1.857,1.857v0.186C12.95,16.114,12.114,16.95,11.093,16.95z"/>
	<path display="inline" fill="#03BF01" d="M18.093,13.45h-0.186c-1.021,0-1.857-0.836-1.857-1.857v-0.186
		c0-1.021,0.836-1.857,1.857-1.857h0.186c1.021,0,1.857,0.836,1.857,1.857v0.186C19.95,12.614,19.114,13.45,18.093,13.45z"/>
	<path display="inline" fill="#03BF01" d="M18.093,20.45h-0.186c-1.021,0-1.857-0.836-1.857-1.857v-0.186
		c0-1.021,0.836-1.857,1.857-1.857h0.186c1.021,0,1.857,0.836,1.857,1.857v0.186C19.95,19.614,19.114,20.45,18.093,20.45z"/>
	<polygon display="inline" fill="#03BF01" points="17.347,18.547 10.254,15 17.347,11.454 17.934,12.626 13.187,15 17.934,17.373 	
		"/>
</g>
<g id="Layer_10">
</g>
<g id="Text">
</g>
</svg>
