<?xml version="1.0" encoding="utf-8"?>
<!-- Generator: Adobe Illustrator 16.0.4, SVG Export Plug-In . SVG Version: 6.00 Build 0)  -->
<!DOCTYPE svg PUBLIC "-//W3C//DTD SVG 1.1//EN" "http://www.w3.org/Graphics/SVG/1.1/DTD/svg11.dtd">
<svg version="1.1" id="Layer_1" xmlns="http://www.w3.org/2000/svg" xmlns:xlink="http://www.w3.org/1999/xlink" x="0px" y="0px"
	 width="30px" height="30px" viewBox="0 0 30 30" enable-background="new 0 0 30 30" xml:space="preserve">
<g id="Flikr">
</g>
<g id="Minimal_Idle">
</g>
<g id="Minimal_Hover_COlor" display="none">
</g>
<g id="Blue_Gradient" display="none">
	
		<linearGradient id="SVGID_1_" gradientUnits="userSpaceOnUse" x1="-657" y1="310" x2="1303" y2="310" gradientTransform="matrix(1 0 0 -1 244 125)">
		<stop  offset="0" style="stop-color:#00AEEF"/>
		<stop  offset="1" style="stop-color:#2E3092"/>
	</linearGradient>
	<rect x="-413" y="-445" display="inline" fill="url(#SVGID_1_)" width="1960" height="520"/>
</g>
<path fill="#FFFFFF" d="M23.156,11.495c0.007,0.158,0.012,0.319,0.012,0.479c0,4.878-3.717,10.505-10.508,10.505
	c-2.085,0-4.027-0.61-5.66-1.658c0.288,0.035,0.582,0.053,0.881,0.053c1.729,0,3.322-0.592,4.585-1.582
	c-1.617-0.029-2.979-1.098-3.449-2.564c0.226,0.044,0.457,0.068,0.694,0.068c0.336,0,0.664-0.047,0.973-0.13
	c-1.69-0.341-2.962-1.833-2.962-3.621c0-0.018,0-0.033,0-0.048c0.497,0.276,1.068,0.444,1.672,0.463
	c-0.991-0.663-1.643-1.793-1.643-3.074c0-0.677,0.182-1.312,0.5-1.856c1.821,2.232,4.542,3.705,7.611,3.858
	c-0.063-0.272-0.095-0.554-0.095-0.841c0-2.042,1.653-3.693,3.692-3.693c1.063,0,2.021,0.448,2.695,1.167
	c0.842-0.167,1.633-0.475,2.345-0.896c-0.274,0.861-0.861,1.586-1.624,2.043c0.747-0.09,1.459-0.288,2.123-0.582
	C24.504,10.323,23.877,10.974,23.156,11.495L23.156,11.495z"/>
<g id="Square_Hover_Color" display="none">
	<rect display="inline" fill="#55ACEE" width="30" height="30"/>
	<path display="inline" fill="#FFFFFF" d="M22.156,11.489c0.007,0.158,0.012,0.319,0.012,0.479c0,4.878-3.717,10.505-10.508,10.505
		c-2.085,0-4.027-0.61-5.66-1.659c0.288,0.035,0.582,0.053,0.881,0.053c1.729,0,3.322-0.591,4.585-1.582
		c-1.617-0.028-2.979-1.097-3.449-2.564c0.226,0.045,0.457,0.068,0.694,0.068c0.336,0,0.664-0.046,0.973-0.129
		c-1.69-0.342-2.962-1.833-2.962-3.622c0-0.018,0-0.033,0-0.048c0.497,0.276,1.068,0.444,1.672,0.463
		c-0.991-0.664-1.643-1.793-1.643-3.074c0-0.677,0.182-1.312,0.5-1.856c1.821,2.232,4.542,3.704,7.611,3.858
		c-0.063-0.272-0.095-0.553-0.095-0.841c0-2.042,1.653-3.693,3.692-3.693c1.063,0,2.021,0.448,2.695,1.167
		c0.842-0.167,1.633-0.475,2.345-0.896c-0.274,0.861-0.861,1.586-1.624,2.043c0.747-0.09,1.459-0.288,2.123-0.582
		C23.504,10.318,22.877,10.968,22.156,11.489L22.156,11.489z"/>
</g>
<g id="Circle_Idle" display="none">
	<path display="inline" opacity="0.3" enable-background="new    " d="M15,30L15,30C6.716,30,0,23.284,0,15l0,0
		C0,6.716,6.716,0,15,0l0,0c8.284,0,15,6.716,15,15l0,0C30,23.284,23.284,30,15,30z"/>
	<path display="inline" fill="#FFFFFF" d="M23.156,11.495c0.007,0.158,0.012,0.319,0.012,0.479c0,4.878-3.717,10.505-10.508,10.505
		c-2.085,0-4.027-0.61-5.66-1.658c0.288,0.035,0.582,0.053,0.881,0.053c1.729,0,3.322-0.592,4.585-1.582
		c-1.617-0.029-2.979-1.098-3.449-2.564c0.226,0.044,0.457,0.068,0.694,0.068c0.336,0,0.664-0.047,0.973-0.13
		c-1.69-0.341-2.962-1.833-2.962-3.621c0-0.018,0-0.033,0-0.048c0.497,0.276,1.068,0.444,1.672,0.463
		c-0.991-0.663-1.643-1.793-1.643-3.074c0-0.677,0.182-1.312,0.5-1.856c1.821,2.232,4.542,3.705,7.611,3.858
		c-0.063-0.272-0.095-0.554-0.095-0.841c0-2.042,1.653-3.693,3.692-3.693c1.063,0,2.021,0.448,2.695,1.167
		c0.842-0.167,1.633-0.475,2.345-0.896c-0.274,0.861-0.861,1.586-1.624,2.043c0.747-0.09,1.459-0.288,2.123-0.582
		C24.504,10.323,23.877,10.974,23.156,11.495L23.156,11.495z"/>
</g>
<g id="Circle_Hover_Color" display="none">
	<path display="inline" fill="#55ACEE" d="M15,30L15,30C6.716,30,0,23.284,0,15l0,0C0,6.716,6.716,0,15,0l0,0
		c8.284,0,15,6.716,15,15l0,0C30,23.284,23.284,30,15,30z"/>
	<path display="inline" fill="#FFFFFF" d="M22.156,11.489c0.007,0.158,0.012,0.319,0.012,0.479c0,4.878-3.717,10.505-10.508,10.505
		c-2.085,0-4.027-0.61-5.66-1.659c0.288,0.035,0.582,0.053,0.881,0.053c1.729,0,3.322-0.591,4.585-1.582
		c-1.617-0.028-2.979-1.097-3.449-2.564c0.226,0.045,0.457,0.068,0.694,0.068c0.336,0,0.664-0.046,0.973-0.129
		c-1.69-0.342-2.962-1.833-2.962-3.622c0-0.018,0-0.033,0-0.048c0.497,0.276,1.068,0.444,1.672,0.463
		c-0.991-0.664-1.643-1.793-1.643-3.074c0-0.677,0.182-1.312,0.5-1.856c1.821,2.232,4.542,3.704,7.611,3.858
		c-0.063-0.272-0.095-0.553-0.095-0.841c0-2.042,1.653-3.693,3.692-3.693c1.063,0,2.021,0.448,2.695,1.167
		c0.842-0.167,1.633-0.475,2.345-0.896c-0.274,0.861-0.861,1.586-1.624,2.043c0.747-0.09,1.459-0.288,2.123-0.582
		C23.504,10.318,22.877,10.968,22.156,11.489L22.156,11.489z"/>
</g>
<g id="Layer_10">
</g>
<g id="Text">
</g>
</svg>
