<?xml version="1.0" encoding="utf-8"?>
<!-- Generator: Adobe Illustrator 16.0.4, SVG Export Plug-In . SVG Version: 6.00 Build 0)  -->
<!DOCTYPE svg PUBLIC "-//W3C//DTD SVG 1.1//EN" "http://www.w3.org/Graphics/SVG/1.1/DTD/svg11.dtd">
<svg version="1.1" id="Layer_1" xmlns="http://www.w3.org/2000/svg" xmlns:xlink="http://www.w3.org/1999/xlink" x="0px" y="0px"
	 width="30px" height="30px" viewBox="0 0 30 30" enable-background="new 0 0 30 30" xml:space="preserve">
<g id="Flikr">
</g>
<g id="Minimal_Idle">
</g>
<g id="Minimal_Hover_COlor" display="none">
</g>
<g id="Blue_Gradient" display="none">
	
		<linearGradient id="SVGID_1_" gradientUnits="userSpaceOnUse" x1="-1665" y1="310" x2="295" y2="310" gradientTransform="matrix(1 0 0 -1 244 125)">
		<stop  offset="0" style="stop-color:#00AEEF"/>
		<stop  offset="1" style="stop-color:#2E3092"/>
	</linearGradient>
	<rect x="-1421" y="-445" display="inline" fill="url(#SVGID_1_)" width="1960" height="520"/>
</g>
<polygon fill="#FFFFFF" points="23,19 20,19 20,23 16,19 7,19 7,9 23,9 "/>
<g id="Square_Hover_Color" display="none">
	<rect display="inline" fill="#007AC2" width="30" height="30"/>
	<polygon display="inline" fill="#FFFFFF" points="23,19 20,19 20,23 16,19 7,19 7,9 23,9 	"/>
</g>
<g id="Circle_Idle" display="none">
	<path display="inline" opacity="0.3" enable-background="new    " d="M15,30L15,30C6.716,30,0,23.284,0,15l0,0
		C0,6.716,6.716,0,15,0l0,0c8.284,0,15,6.716,15,15l0,0C30,23.284,23.284,30,15,30z"/>
	<polygon display="inline" fill="#FFFFFF" points="23,19 20,19 20,23 16,19 7,19 7,9 23,9 	"/>
</g>
<g id="Circle_Hover_Color" display="none">
	<path display="inline" fill="#007AC2" d="M15,30L15,30C6.716,30,0,23.284,0,15l0,0C0,6.716,6.716,0,15,0l0,0
		c8.284,0,15,6.716,15,15l0,0C30,23.284,23.284,30,15,30z"/>
	<polygon display="inline" fill="#FFFFFF" points="23,19 20,19 20,23 16,19 7,19 7,9 23,9 	"/>
</g>
<g id="Layer_10">
</g>
<g id="Text">
</g>
</svg>
